<?xml version="1.0" encoding="UTF-8" standalone="no"?>
<!DOCTYPE svg PUBLIC "-//W3C//DTD SVG 1.1//EN"
 "http://www.w3.org/Graphics/SVG/1.1/DTD/svg11.dtd">
<!-- Generated by graphviz version 2.47.0 (20210316.0004)
 -->
<!-- Title: dependencies Pages: 1 -->
<svg width="610pt" height="366pt"
 viewBox="0.00 0.00 610.00 366.00" xmlns="http://www.w3.org/2000/svg" xmlns:xlink="http://www.w3.org/1999/xlink">
<g id="graph0" class="graph" transform="scale(1 1) rotate(0) translate(4 362)">
<title>dependencies</title>
<polygon fill="white" stroke="transparent" points="-4,4 -4,-362 606,-362 606,4 -4,4"/>
<text text-anchor="start" x="280.01" y="-42.4" font-family="Times-12" font-weight="bold" font-size="14.00">Legend</text>
<polygon fill="#ffffb3" stroke="transparent" points="67,-10 67,-30 87,-30 87,-10 67,-10"/>
<text text-anchor="start" x="90.63" y="-15.4" font-family="Times-12" font-size="14.00"> &#160;Declarations</text>
<polygon fill="#8dd3c7" stroke="transparent" points="180,-10 180,-30 200,-30 200,-10 180,-10"/>
<text text-anchor="start" x="203.73" y="-15.4" font-family="Times-12" font-size="14.00"> &#160;Module</text>
<polygon fill="#80b1d3" stroke="transparent" points="266,-10 266,-30 286,-30 286,-10 266,-10"/>
<text text-anchor="start" x="289.78" y="-15.4" font-family="Times-12" font-size="14.00"> &#160;Bootstrap</text>
<polygon fill="#fdb462" stroke="transparent" points="363,-10 363,-30 383,-30 383,-10 363,-10"/>
<text text-anchor="start" x="386.67" y="-15.4" font-family="Times-12" font-size="14.00"> &#160;Providers</text>
<polygon fill="#fb8072" stroke="transparent" points="459,-10 459,-30 479,-30 479,-10 459,-10"/>
<text text-anchor="start" x="482.73" y="-15.4" font-family="Times-12" font-size="14.00"> &#160;Exports</text>
<g id="clust7" class="cluster">
<title>cluster_AuthModule</title>
<polygon fill="none" stroke="black" stroke-dasharray="1,5" points="444,-138 444,-350 594,-350 594,-138 444,-138"/>
</g>
<g id="clust10" class="cluster">
<title>cluster_AuthModule_exports</title>
<polygon fill="none" stroke="black" points="459,-290 459,-342 565,-342 565,-290 459,-290"/>
</g>
<g id="clust12" class="cluster">
<title>cluster_AuthModule_providers</title>
<polygon fill="none" stroke="black" points="452,-146 452,-198 586,-198 586,-146 452,-146"/>
</g>
<g id="clust19" class="cluster">
<title>cluster_UsersModule</title>
<polygon fill="none" stroke="black" stroke-dasharray="1,5" points="8,-70 8,-282 164,-282 164,-70 8,-70"/>
</g>
<g id="clust24" class="cluster">
<title>cluster_UsersModule_providers</title>
<polygon fill="none" stroke="black" points="16,-78 16,-130 156,-130 156,-78 16,-78"/>
</g>
<g id="clust22" class="cluster">
<title>cluster_UsersModule_exports</title>
<polygon fill="none" stroke="black" points="34,-222 34,-274 144,-274 144,-222 34,-222"/>
</g>
<g id="clust1" class="cluster">
<title>cluster_AppModule</title>
<polygon fill="none" stroke="black" stroke-dasharray="1,5" points="176,-214 176,-342 436,-342 436,-214 176,-214"/>
</g>
<g id="clust6" class="cluster">
<title>cluster_AppModule_providers</title>
<polygon fill="none" stroke="black" points="298,-222 298,-274 428,-274 428,-222 298,-222"/>
</g>
<g id="clust3" class="cluster">
<title>cluster_AppModule_imports</title>
<polygon fill="none" stroke="black" points="184,-222 184,-274 290,-274 290,-222 184,-222"/>
</g>
<g id="clust13" class="cluster">
<title>cluster_PostsModule</title>
<polygon fill="none" stroke="black" stroke-dasharray="1,5" points="172,-138 172,-206 324,-206 324,-138 172,-138"/>
</g>
<g id="clust18" class="cluster">
<title>cluster_PostsModule_providers</title>
<polygon fill="none" stroke="black" points="180,-146 180,-198 316,-198 316,-146 180,-146"/>
</g>
<!-- AuthModule -->
<g id="node1" class="node">
<title>AuthModule</title>
<polygon fill="#8dd3c7" stroke="black" points="555.55,-266 552.55,-270 531.55,-270 528.55,-266 468.45,-266 468.45,-230 555.55,-230 555.55,-266"/>
<text text-anchor="middle" x="512" y="-243.8" font-family="Times,serif" font-size="14.00">AuthModule</text>
</g>
<!-- AppModule -->
<g id="node4" class="node">
<title>AppModule</title>
<polygon fill="#8dd3c7" stroke="black" points="341.66,-334 338.66,-338 317.66,-338 314.66,-334 258.34,-334 258.34,-298 341.66,-298 341.66,-334"/>
<text text-anchor="middle" x="300" y="-311.8" font-family="Times,serif" font-size="14.00">AppModule</text>
</g>
<!-- AuthModule&#45;&gt;AppModule -->
<g id="edge1" class="edge">
<title>AuthModule&#45;&gt;AppModule</title>
<path fill="none" stroke="black" d="M468.31,-248C465.33,-248 463.48,-248 463.48,-248 463.48,-248 463.48,-316 463.48,-316 463.48,-316 351.68,-316 351.68,-316"/>
<polygon fill="black" stroke="black" points="351.68,-312.5 341.68,-316 351.68,-319.5 351.68,-312.5"/>
</g>
<!-- AuthService  -->
<g id="node6" class="node">
<title>AuthService </title>
<polygon fill="#fb8072" stroke="black" points="556.98,-334 467.02,-334 467.02,-298 556.98,-298 556.98,-334"/>
<text text-anchor="middle" x="512" y="-311.8" font-family="Times,serif" font-size="14.00">AuthService </text>
</g>
<!-- AuthModule&#45;&gt;AuthService  -->
<g id="edge5" class="edge">
<title>AuthModule&#45;&gt;AuthService </title>
<path fill="none" stroke="black" stroke-dasharray="5,2" d="M512,-266.22C512,-266.22 512,-287.73 512,-287.73"/>
<polygon fill="black" stroke="black" points="508.5,-287.73 512,-297.73 515.5,-287.73 508.5,-287.73"/>
</g>
<!-- PostsModule -->
<g id="node2" class="node">
<title>PostsModule</title>
<polygon fill="#8dd3c7" stroke="black" points="281.61,-266 278.61,-270 257.61,-270 254.61,-266 192.39,-266 192.39,-230 281.61,-230 281.61,-266"/>
<text text-anchor="middle" x="237" y="-243.8" font-family="Times,serif" font-size="14.00">PostsModule</text>
</g>
<!-- PostsModule&#45;&gt;AppModule -->
<g id="edge2" class="edge">
<title>PostsModule&#45;&gt;AppModule</title>
<path fill="none" stroke="black" d="M269.86,-266.22C269.86,-266.22 269.86,-287.73 269.86,-287.73"/>
<polygon fill="black" stroke="black" points="266.36,-287.73 269.86,-297.73 273.36,-287.73 266.36,-287.73"/>
</g>
<!-- UsersModule -->
<g id="node3" class="node">
<title>UsersModule</title>
<polygon fill="#8dd3c7" stroke="black" points="138.92,-190 135.92,-194 114.92,-194 111.92,-190 47.08,-190 47.08,-154 138.92,-154 138.92,-190"/>
<text text-anchor="middle" x="93" y="-167.8" font-family="Times,serif" font-size="14.00">UsersModule</text>
</g>
<!-- UsersModule&#45;&gt;PostsModule -->
<g id="edge7" class="edge">
<title>UsersModule&#45;&gt;PostsModule</title>
<path fill="none" stroke="black" d="M138.94,-166C142.58,-166 144.89,-166 144.89,-166 144.89,-166 144.89,-248 144.89,-248 144.89,-248 182.29,-248 182.29,-248"/>
<polygon fill="black" stroke="black" points="182.29,-251.5 192.29,-248 182.29,-244.5 182.29,-251.5"/>
</g>
<!-- UsersModule&#45;&gt;AppModule -->
<g id="edge3" class="edge">
<title>UsersModule&#45;&gt;AppModule</title>
<path fill="none" stroke="black" d="M138.89,-178C140.72,-178 141.8,-178 141.8,-178 141.8,-178 141.8,-316 141.8,-316 141.8,-316 248.02,-316 248.02,-316"/>
<polygon fill="black" stroke="black" points="248.02,-319.5 258.02,-316 248.02,-312.5 248.02,-319.5"/>
</g>
<!-- UsersService  -->
<g id="node9" class="node">
<title>UsersService </title>
<polygon fill="#fb8072" stroke="black" points="135.85,-266 42.15,-266 42.15,-230 135.85,-230 135.85,-266"/>
<text text-anchor="middle" x="89" y="-243.8" font-family="Times,serif" font-size="14.00">UsersService </text>
</g>
<!-- UsersModule&#45;&gt;UsersService  -->
<g id="edge9" class="edge">
<title>UsersModule&#45;&gt;UsersService </title>
<path fill="none" stroke="black" stroke-dasharray="5,2" d="M91.48,-190.01C91.48,-190.01 91.48,-219.85 91.48,-219.85"/>
<polygon fill="black" stroke="black" points="87.98,-219.85 91.48,-229.85 94.98,-219.85 87.98,-219.85"/>
</g>
<!-- AppService -->
<g id="node5" class="node">
<title>AppService</title>
<ellipse fill="#fdb462" stroke="black" cx="363" cy="-248" rx="56.74" ry="18"/>
<text text-anchor="middle" x="363" y="-243.8" font-family="Times,serif" font-size="14.00">AppService</text>
</g>
<!-- AppService&#45;&gt;AppModule -->
<g id="edge4" class="edge">
<title>AppService&#45;&gt;AppModule</title>
<path fill="none" stroke="black" d="M324.1,-261.11C324.1,-261.11 324.1,-287.79 324.1,-287.79"/>
<polygon fill="black" stroke="black" points="320.6,-287.79 324.1,-297.79 327.6,-287.79 320.6,-287.79"/>
</g>
<!-- AuthService -->
<g id="node7" class="node">
<title>AuthService</title>
<ellipse fill="#fdb462" stroke="black" cx="519" cy="-172" rx="59.11" ry="18"/>
<text text-anchor="middle" x="519" y="-167.8" font-family="Times,serif" font-size="14.00">AuthService</text>
</g>
<!-- AuthService&#45;&gt;AuthModule -->
<g id="edge6" class="edge">
<title>AuthService&#45;&gt;AuthModule</title>
<path fill="none" stroke="black" d="M512,-190.01C512,-190.01 512,-219.85 512,-219.85"/>
<polygon fill="black" stroke="black" points="508.5,-219.85 512,-229.85 515.5,-219.85 508.5,-219.85"/>
</g>
<!-- PostsService -->
<g id="node8" class="node">
<title>PostsService</title>
<ellipse fill="#fdb462" stroke="black" cx="248" cy="-172" rx="60.27" ry="18"/>
<text text-anchor="middle" x="248" y="-167.8" font-family="Times,serif" font-size="14.00">PostsService</text>
</g>
<!-- PostsService&#45;&gt;PostsModule -->
<g id="edge8" class="edge">
<title>PostsService&#45;&gt;PostsModule</title>
<path fill="none" stroke="black" d="M237,-190.01C237,-190.01 237,-219.85 237,-219.85"/>
<polygon fill="black" stroke="black" points="233.5,-219.85 237,-229.85 240.5,-219.85 233.5,-219.85"/>
</g>
<!-- UsersService -->
<g id="node10" class="node">
<title>UsersService</title>
<ellipse fill="#fdb462" stroke="black" cx="86" cy="-104" rx="61.95" ry="18"/>
<text text-anchor="middle" x="86" y="-99.8" font-family="Times,serif" font-size="14.00">UsersService</text>
</g>
<!-- UsersService&#45;&gt;UsersModule -->
<g id="edge10" class="edge">
<title>UsersService&#45;&gt;UsersModule</title>
<path fill="none" stroke="black" d="M93,-122.22C93,-122.22 93,-143.73 93,-143.73"/>
<polygon fill="black" stroke="black" points="89.5,-143.73 93,-153.73 96.5,-143.73 89.5,-143.73"/>
</g>
</g>
</svg>
